# xmcd CD database file
#
# Track frame offsets:
#	150
#	23217
#	49757
#	79700
#	102327
#	125675
#	152255
#	176382
#	190962
#	226817
#
# Disc length: 3222 seconds
#
# Revision: 0
# Processed by: cddbd v1.5PL3 Copyright (c) Steve Scherf et al.
# Submitted via: CDex 1.51
#
DISCID=710c940a
DTITLE=Blues Bianco - Good times ahead
DYEAR=1990
DGENRE=Blues
TTITLE0=Cry sometimes
TTITLE1=Be what you are
TTITLE2=Boy blue
TTITLE3=So good
TTITLE4=Java blues
TTITLE5=Long way back home
TTITLE6=Try a little more
TTITLE7=Love and happiness
TTITLE8=Shout
TTITLE9=Jealous kind
EXTD=YEAR: 1990
EXTT0=
EXTT1=
EXTT2=
EXTT3=
EXTT4=
EXTT5=
EXTT6=
EXTT7=
EXTT8=
EXTT9=
PLAYORDER=
